<svg width="20" height="20" viewBox="0 0 41 41" fill="none" xmlns="http://www.w3.org/2000/svg">
<path d="M32.1113 40.8336C30.366 40.8336 27.9144 40.2024 24.2433 38.1514C19.7792 35.648 16.3262 33.3368 11.8862 28.9084C7.60534 24.6302 5.52213 21.8603 2.60652 16.5548C-0.68728 10.5645 -0.125796 7.42443 0.50185 6.08241C1.2493 4.47843 2.3526 3.51908 3.77867 2.56688C4.58866 2.03618 5.44584 1.58126 6.33932 1.20787C6.42873 1.16943 6.51188 1.13277 6.58609 1.09969C7.02866 0.900307 7.69922 0.599001 8.5486 0.920871C9.11545 1.13366 9.6215 1.56908 10.4137 2.3514C12.0382 3.9536 14.2582 7.52189 15.0772 9.27429C15.6271 10.4554 15.9909 11.235 15.9918 12.1094C15.9918 13.1332 15.4769 13.9226 14.8519 14.7747C14.7348 14.9347 14.6185 15.0876 14.5059 15.236C13.8255 16.1301 13.6762 16.3885 13.7745 16.8499C13.9739 17.777 15.4608 20.5371 17.9043 22.9752C20.3478 25.4134 23.0283 26.8064 23.959 27.0049C24.44 27.1077 24.7038 26.9521 25.6265 26.2476C25.7588 26.1465 25.8947 26.0419 26.0369 25.9373C26.99 25.2283 27.7428 24.7267 28.7424 24.7267H28.7477C29.6177 24.7267 30.3624 25.104 31.5963 25.7263C33.2056 26.5381 36.8812 28.7295 38.4932 30.3559C39.2773 31.1463 39.7146 31.6505 39.9282 32.2165C40.2501 33.0685 39.947 33.7364 39.7494 34.1835C39.7163 34.2577 39.6797 34.339 39.6412 34.4293C39.2649 35.3212 38.8073 36.1766 38.2742 36.9846C37.3238 38.4062 36.3608 39.5068 34.7533 40.2552C33.9278 40.6456 33.0244 40.8434 32.1113 40.8336Z" fill="black"/>
</svg>
